<svg width="58" height="58" viewBox="0 0 58 58" fill="none" xmlns="http://www.w3.org/2000/svg">
<path d="M56.6287 33.003L40.6124 27.2468L33.9176 18.8414C33.3354 18.1297 32.6021 17.5565 31.7709 17.1635C30.9397 16.7705 30.0313 16.5675 29.1119 16.5692H12.5487C11.5357 16.5688 10.538 16.8163 9.64261 17.29C8.7472 17.7636 7.98126 18.4492 7.41157 19.2867L1.79386 27.5368C0.623819 29.2538 -0.00133745 31.2837 2.14838e-06 33.3614V49.7103C2.14838e-06 50.2597 0.218241 50.7865 0.606709 51.175C0.995178 51.5634 1.52205 51.7816 2.07143 51.7816H6.50843C6.95904 53.5593 7.98956 55.136 9.43697 56.2623C10.8844 57.3885 12.666 58 14.5 58C16.334 58 18.1156 57.3885 19.563 56.2623C21.0104 55.136 22.041 53.5593 22.4916 51.7816H35.5084C35.959 53.5593 36.9896 55.136 38.437 56.2623C39.8844 57.3885 41.666 58 43.5 58C45.334 58 47.1156 57.3885 48.563 56.2623C50.0104 55.136 51.041 53.5593 51.4916 51.7816H55.9286C56.478 51.7816 57.0048 51.5634 57.3933 51.175C57.7818 50.7865 58 50.2597 58 49.7103V34.9521C57.9999 34.5256 57.8682 34.1095 57.6228 33.7606C57.3773 33.4118 57.0302 33.1472 56.6287 33.003ZM14.5 53.853C13.6806 53.853 12.8796 53.61 12.1984 53.1548C11.5171 52.6996 10.9861 52.0526 10.6725 51.2956C10.3589 50.5387 10.2769 49.7057 10.4367 48.9021C10.5966 48.0985 10.9912 47.3604 11.5706 46.781C12.1499 46.2017 12.8881 45.8071 13.6918 45.6473C14.4954 45.4874 15.3284 45.5695 16.0854 45.883C16.8424 46.1966 17.4894 46.7275 17.9447 47.4088C18.3999 48.09 18.6429 48.891 18.6429 49.7103C18.6412 50.8085 18.2042 51.8612 17.4276 52.6378C16.651 53.4143 15.5983 53.8513 14.5 53.853ZM43.5 53.853C42.6806 53.853 41.8796 53.61 41.1984 53.1548C40.5171 52.6996 39.9861 52.0526 39.6725 51.2956C39.3589 50.5387 39.2769 49.7057 39.4367 48.9021C39.5966 48.0985 39.9912 47.3604 40.5706 46.781C41.15 46.2017 41.8881 45.8071 42.6918 45.6473C43.4954 45.4874 44.3284 45.5695 45.0854 45.883C45.8424 46.1966 46.4894 46.7275 46.9447 47.4088C47.3999 48.09 47.6429 48.891 47.6429 49.7103C47.6418 50.8087 47.2049 51.8617 46.4282 52.6384C45.6515 53.4151 44.5984 53.8519 43.5 53.853ZM53.8571 47.639H51.4916C51.041 45.8613 50.0104 44.2846 48.563 43.1584C47.1156 42.0321 45.334 41.4206 43.5 41.4206C41.666 41.4206 39.8844 42.0321 38.437 43.1584C36.9896 44.2846 35.959 45.8613 35.5084 47.639H22.4916C22.041 45.8613 21.0104 44.2846 19.563 43.1584C18.1156 42.0321 16.334 41.4206 14.5 41.4206C12.666 41.4206 10.8844 42.0321 9.43697 43.1584C7.98956 44.2846 6.95904 45.8613 6.50843 47.639H4.14286V33.3614C4.14263 32.1142 4.51797 30.8958 5.22 29.865L10.8356 21.619C11.0255 21.3396 11.2809 21.1108 11.5795 20.9527C11.8781 20.7945 12.2108 20.7119 12.5487 20.7118H29.1119C29.4133 20.7106 29.7112 20.7757 29.9847 20.9024C30.2582 21.0291 30.5005 21.2144 30.6944 21.4451L37.7373 30.2875C37.9768 30.5882 38.2953 30.8162 38.657 30.9462L53.8571 36.4083V47.639ZM46.7211 8.28388C46.7211 7.18518 47.1576 6.13148 47.9345 5.35458C48.7114 4.57769 49.7652 4.14123 50.8639 4.14123H58C57.1843 2.71766 55.9619 1.57017 54.4897 0.845893C53.0174 0.121617 51.3624 -0.146429 49.7368 0.0761247C48.1111 0.298678 46.5891 1.00169 45.3657 2.09501C44.1423 3.18833 43.2733 4.62213 42.8703 6.21255H29V10.3552H42.8703C43.2733 11.9456 44.1423 13.3794 45.3657 14.4727C46.5891 15.5661 48.1111 16.2691 49.7368 16.4916C51.3624 16.7142 53.0174 16.4461 54.4897 15.7219C55.9619 14.9976 57.1843 13.8501 58 12.4265H50.8639C49.7652 12.4265 48.7114 11.9901 47.9345 11.2132C47.1576 10.4363 46.7211 9.38257 46.7211 8.28388Z" fill="black"/>
</svg>
