<svg id="Capa_1" data-name="Capa 1" xmlns="http://www.w3.org/2000/svg" viewBox="0 0 55.25 55.25"><path d="M.52,51.93,0,54a1.2,1.2,0,0,0,0,.2v0a1.28,1.28,0,0,0,.06.33l0,.07a1,1,0,0,0,.2.3,1.19,1.19,0,0,0,.33.22,1,1,0,0,0,.38.07.91.91,0,0,0,.23,0l2.09-.49Z" transform="translate(0 0)" style="fill:#313131"/><path d="M52.62,2.63a9,9,0,0,0-12.73,0L3.83,38.69l0,.06a.24.24,0,0,0-.06.08.76.76,0,0,0-.13.23l0,.08s0,0,0,0L1.07,49.65,5.6,54.18l10.48-2.49.08,0,.1,0a1.37,1.37,0,0,0,.2-.13l.07-.05,0,0L52.62,15.36A9,9,0,0,0,52.62,2.63ZM17.16,48l.35-3.18L39.89,22.43A1,1,0,0,0,38.47,21L16.1,43.4l-4.78.52.53-4.77L34.23,16.77a1,1,0,1,0-1.41-1.41L10.44,37.74l-3.18.35L34.94,10.41l9.9,9.9ZM46.25,18.9,36.35,9l1.42-1.42,9.9,9.9Zm2.83-2.83-9.9-9.9L40.6,4.75l9.9,9.9Z" transform="translate(0 0)" style="fill:#313131"/></svg>