<svg width="122" height="56" viewBox="0 0 122 56" fill="none" xmlns="http://www.w3.org/2000/svg">
<g clip-path="url(#clip0_10_119)">
<path d="M3.72011 41.0969H18.5107V29.9197H0.0224609V48.5257H3.72011V41.0969V41.0969ZM36.9765 41.0969V29.9197H40.6741V37.3712H70.2328V48.5485H36.9765V44.8227H66.5351V41.0969H36.9765V41.0969ZM73.9304 48.5257V29.9197H85.0234V48.5257H81.3258V33.6227H77.6281V48.5257H73.9304ZM92.3962 52.2515V37.3485H88.6985V55.9773H103.489V52.2515H92.3962ZM110.884 52.2515V37.3485H107.187V55.9773H121.977V52.2515H110.884ZM22.2084 48.5257V29.9197H33.3013V48.5257H29.6037V33.6227H25.906V48.5257H22.2084ZM0.0224609 52.2515H51.7671V55.9773H0.0224609V52.2515ZM59.1398 54.1144C59.1398 53.0921 58.3056 52.2515 57.291 52.2515C56.2764 52.2515 55.4422 53.0921 55.4422 54.1144C55.4422 55.1367 56.2764 55.9773 57.291 55.9773C58.3281 55.9773 59.1398 55.1594 59.1398 54.1144ZM64.6863 54.1144C64.6863 53.0921 63.8521 52.2515 62.8375 52.2515C61.8229 52.2515 60.9887 53.0921 60.9887 54.1144C60.9887 55.1367 61.8229 55.9773 62.8375 55.9773C63.8746 55.9773 64.6863 55.1594 64.6863 54.1144ZM73.9304 54.1144C73.9304 53.0921 73.0962 52.2515 72.0816 52.2515C71.067 52.2515 70.2328 53.0921 70.2328 54.1144C70.2328 55.1367 71.067 55.9773 72.0816 55.9773C73.1188 55.9773 73.9304 55.1594 73.9304 54.1144ZM79.4769 54.1144C79.4769 53.0921 78.6427 52.2515 77.6281 52.2515C76.6135 52.2515 75.7793 53.0921 75.7793 54.1144C75.7793 55.1367 76.6135 55.9773 77.6281 55.9773C78.6427 55.9773 79.4769 55.1594 79.4769 54.1144ZM85.0234 54.1144C85.0234 53.0921 84.1892 52.2515 83.1746 52.2515C82.16 52.2515 81.3258 53.0921 81.3258 54.1144C81.3258 55.1367 82.16 55.9773 83.1746 55.9773C84.1892 55.9773 85.0234 55.1594 85.0234 54.1144ZM9.31169 26.1939C11.7918 25.8986 14.1367 24.9217 16.0982 23.3769C16.3913 23.1497 16.6845 22.9452 17.0001 22.7408C17.654 22.3318 18.3529 21.9911 19.0519 21.7184C21.9378 20.628 24.1023 18.1971 24.8463 15.1984C25.4326 13.7444 25.9962 12.2677 26.4923 10.7683C27.9127 9.60972 29.2429 8.36023 30.5281 7.04258C31.2045 6.33832 31.8809 5.63407 32.5348 4.90709C32.8279 4.56632 33.1886 4.2937 33.5945 4.08924C34.113 3.7939 34.7443 3.7939 35.2404 4.08924C36.255 4.56632 37.1568 5.27058 37.9234 6.11114C38.3067 6.54279 38.6675 6.99715 39.0282 7.47423C39.2086 7.72413 39.4115 7.99674 39.5919 8.24664C39.8399 8.61013 40.0879 8.97362 40.3359 9.35982C41.2603 10.8138 42.568 11.9951 44.1012 12.7675C45.9726 13.9943 47.4381 15.7209 48.34 17.7655C49.0615 18.9923 49.7604 20.2418 50.4143 21.4913C51.1809 22.9679 52.2856 24.2401 53.6384 25.217C54.5403 25.8758 55.6225 26.2166 56.7273 26.1939H88.6985V33.6454H121.977V29.9197H92.3962V22.4681H64.4158C63.5364 22.2637 62.7022 21.9229 61.9582 21.4458C60.5828 20.4917 59.2751 19.4239 58.0125 18.288C55.6 16.0616 53.3679 13.6081 51.3838 10.9955C51.023 10.5184 50.6623 10.0414 50.3015 9.58701C49.8731 9.08721 49.4673 8.61013 49.0389 8.13305C48.1145 7.08802 47.1225 6.08843 46.0628 5.1797C44.7551 4.0438 43.3572 3.04421 41.8916 2.18092C40.9672 1.63569 39.9752 1.18133 38.9606 0.79512C37.6529 0.318041 36.3 0.0454247 34.9247 0.0227067C34.0905 -1.13503e-05 33.2788 0.113579 32.4897 0.363477C31.7456 0.590658 31.0918 0.999583 30.5732 1.54482L29.1979 3.02149C28.5215 3.74847 27.8451 4.45273 27.1687 5.1797C26.2217 6.1793 25.2071 7.08802 24.1249 7.90587C23.6288 8.26936 23.1328 8.61013 22.5917 8.92818C21.5545 9.54157 20.5625 10.2004 19.593 10.9274C19.0519 11.3363 18.5558 11.7679 18.1049 12.2677C17.8343 12.5631 17.6089 12.9038 17.4059 13.2673C17.0452 13.9716 16.6845 14.6758 16.3237 15.3801C15.8728 16.3115 15.4444 17.243 15.0385 18.1971C14.768 18.8333 14.4523 19.4466 14.0465 20.0146C13.7534 20.4462 13.3475 20.8097 12.8966 21.0823C12.4231 21.2414 11.9722 21.4231 11.5213 21.673C10.6419 22.1728 9.64989 22.4454 8.63529 22.5136H0.0224609V26.2393L9.31169 26.1939ZM57.9223 22.4681H61.1916C59.5006 21.3095 57.8998 20.0146 56.4117 18.5834C54.856 17.1067 53.3904 15.5619 51.9925 13.9262C51.1809 12.972 50.4143 11.9951 49.6928 10.9501C48.7909 9.63244 47.7312 8.42839 46.5362 7.36064C45.454 6.40648 44.3718 5.47504 43.2444 4.56632C42.3877 3.88478 41.4407 3.29411 40.4261 2.83974C40.381 2.81703 40.3134 2.83974 40.2908 2.9079C40.2908 2.93062 40.2908 2.95334 40.2908 2.95334C41.2603 3.97565 42.1396 5.06611 42.9062 6.24745C43.2219 6.72453 43.5375 7.17889 43.8757 7.65597C44.0787 7.92859 44.3041 8.15577 44.5747 8.36023C45.4765 9.06449 46.401 9.72331 47.3705 10.3594C47.889 10.7002 48.34 11.1091 48.7458 11.5635C49.5349 12.4722 50.279 13.4491 50.9554 14.4259C51.722 15.5619 52.3758 16.7659 52.962 18.0154C53.4581 19.015 54.0217 19.9692 54.6756 20.8552C55.4196 21.9683 56.5695 22.4454 57.9223 22.4681ZM24.5532 12.3813C24.1474 13.3582 23.7416 14.3578 23.3808 15.3574C22.8848 16.6978 22.0957 17.9018 21.0585 18.856C20.2468 19.6057 19.2999 20.2191 18.2853 20.628C18.2402 20.6507 18.1951 20.628 18.1725 20.6053C18.15 20.5825 18.1274 20.5371 18.1274 20.4917C18.9842 18.5606 19.9312 16.675 20.9683 14.8576C21.1487 14.5623 21.3742 14.3124 21.6222 14.0852C22.524 13.4036 23.4485 12.7903 24.4405 12.245C24.4631 12.2223 24.5081 12.2223 24.5532 12.245C24.5532 12.3132 24.5532 12.3586 24.5532 12.3813ZM3.72011 33.6454H14.8131V37.3712H3.72011V33.6454Z" stroke="white" stroke-width="0.22" stroke-linejoin="bevel"/>
<path fill-rule="evenodd" clip-rule="evenodd" d="M3.72011 33.6454H14.8131V37.3712H3.72011V33.6454ZM107.187 37.3712V56H121.977V52.2515H110.884V37.3485H107.187V37.3712ZM88.7211 37.3712V56H103.489V52.2515H92.3962V37.3485H88.7211V37.3712ZM51.7671 55.9773V52.2515H0.0224609V55.9773H51.7671ZM57.291 55.9773C58.3056 55.9773 59.1398 55.1367 59.1398 54.1144C59.1398 53.0921 58.3056 52.2515 57.291 52.2515C56.2764 52.2515 55.4422 53.0921 55.4422 54.1144C55.4422 55.1594 56.2764 55.9773 57.291 55.9773ZM62.8375 55.9773C63.8521 55.9773 64.6863 55.1367 64.6863 54.1144C64.6863 53.0921 63.8521 52.2515 62.8375 52.2515C61.8229 52.2515 60.9887 53.0921 60.9887 54.1144C60.9887 55.1594 61.8229 55.9773 62.8375 55.9773ZM72.0816 55.9773C73.0962 55.9773 73.9304 55.1367 73.9304 54.1144C73.9304 53.0921 73.0962 52.2515 72.0816 52.2515C71.067 52.2515 70.2328 53.0921 70.2328 54.1144C70.2328 55.1594 71.067 55.9773 72.0816 55.9773ZM79.4769 54.1144C79.4769 53.0921 78.6427 52.2515 77.6281 52.2515C76.6135 52.2515 75.7793 53.0921 75.7793 54.1144C75.7793 55.1367 76.6135 55.9773 77.6281 55.9773C78.6427 55.9773 79.4769 55.1594 79.4769 54.1144ZM83.1746 52.2515C82.16 52.2515 81.3258 53.0921 81.3258 54.1144C81.3258 55.1367 82.16 55.9773 83.1746 55.9773C84.1892 55.9773 85.0234 55.1367 85.0234 54.1144C85.0234 53.0921 84.1892 52.2515 83.1746 52.2515ZM73.9304 29.9197V48.5258H77.6281V33.6227H81.3258V48.5258H85.0234V29.9197H73.9304ZM70.2328 37.3712H40.6741V29.9197H36.9765V41.097H66.5351V44.8227H36.9765V48.5485H70.2328V37.3712ZM33.2788 29.9197H22.2084V48.5258H25.906V33.6227H29.6037V48.5258H33.3013L33.2788 29.9197ZM9.31169 26.1939C11.7918 25.8986 14.1367 24.9217 16.0982 23.3769C16.3913 23.1497 16.6845 22.9452 17.0001 22.7408C17.654 22.3318 18.3529 21.9911 19.0519 21.7184C21.9378 20.628 24.1023 18.1972 24.8463 15.1984C25.4326 13.7444 25.9962 12.2677 26.4923 10.7683C27.9127 9.60973 29.2429 8.36023 30.5281 7.04259C31.2045 6.33833 31.8809 5.63407 32.5348 4.90709C32.8279 4.56632 33.1886 4.2937 33.5945 4.08924C34.113 3.7939 34.7443 3.7939 35.2404 4.08924C36.255 4.56632 37.1568 5.27058 37.9234 6.11115C38.3067 6.54279 38.6675 6.99715 39.0282 7.47423C39.2086 7.72413 39.4115 7.99674 39.5919 8.24664C39.8399 8.61013 40.0879 8.97362 40.3359 9.35983C41.2603 10.8138 42.568 11.9951 44.1012 12.7675C45.9726 13.9943 47.4381 15.7209 48.34 17.7655C49.0615 18.9923 49.7604 20.2418 50.4143 21.4913C51.1809 22.9679 52.2856 24.2402 53.6384 25.217C54.5403 25.8759 55.6225 26.2166 56.7273 26.1939H88.6985V33.6454H121.977V29.9197H92.3962V22.4681H64.4157C63.5364 22.2637 62.7022 21.9229 61.9582 21.4458C60.5828 20.4917 59.2751 19.4239 58.0125 18.288C55.6 16.0617 53.3679 13.6081 51.3838 10.9955C51.023 10.5184 50.6623 10.0414 50.3015 9.58701C49.8731 9.08721 49.4673 8.61013 49.0389 8.13305C48.1145 7.08802 47.1225 6.08843 46.0628 5.17971C44.7551 4.0438 43.3572 3.04421 41.8916 2.18092C40.9672 1.63569 39.9752 1.18133 38.9606 0.795121C37.6529 0.318041 36.3 0.0454248 34.9247 0.0227067C34.0905 -1.13547e-05 33.2788 0.113579 32.4897 0.363478C31.7456 0.590658 31.0918 0.999583 30.5732 1.54482L29.1979 3.02149L27.1687 5.17971C26.2217 6.1793 25.2071 7.08802 24.1249 7.90587C23.6288 8.26936 23.1328 8.61013 22.5917 8.92818C21.5545 9.54157 20.5625 10.2004 19.593 10.9274C19.0519 11.3363 18.5558 11.7679 18.1049 12.2677C17.8343 12.5631 17.6089 12.9038 17.4059 13.2673C17.0452 13.9716 16.6845 14.6759 16.3237 15.3801C15.8728 16.3116 15.4444 17.243 15.0385 18.1972C14.768 18.8333 14.4523 19.4466 14.0465 20.0146C13.7534 20.4462 13.3475 20.8097 12.8966 21.0823C12.4231 21.2414 11.9722 21.4231 11.5213 21.673C10.6419 22.1728 9.64989 22.4454 8.63529 22.5136H0.0224609V26.2393L9.31169 26.1939ZM18.1725 20.628C18.1951 20.6507 18.2402 20.6507 18.2853 20.6507C19.3224 20.2418 20.2468 19.6284 21.0585 18.8787C22.0957 17.9018 22.8848 16.6978 23.3808 15.3574C23.7416 14.3578 24.1249 13.3582 24.5532 12.3813C24.5758 12.3586 24.5758 12.3132 24.5532 12.2677C24.5307 12.245 24.4856 12.245 24.4405 12.2677C23.471 12.813 22.524 13.4264 21.6222 14.1079C21.3516 14.3124 21.1487 14.585 20.9683 14.8803C19.9312 16.6978 18.9842 18.5834 18.1274 20.5144C18.1274 20.5598 18.15 20.5825 18.1725 20.628ZM57.9223 22.4681C56.5695 22.4227 55.4196 21.9456 54.6981 20.9006C54.0443 20.0146 53.4581 19.0604 52.962 18.0608C52.3984 16.8113 51.722 15.6073 50.9554 14.4714C50.2564 13.4718 49.5349 12.5176 48.7458 11.6089C48.34 11.1318 47.889 10.7229 47.3705 10.4049C46.401 9.79147 45.4765 9.10993 44.5747 8.40567C44.3041 8.20121 44.0787 7.95131 43.8757 7.70141C43.5375 7.24705 43.2219 6.76997 42.9062 6.29289C42.1396 5.11155 41.2603 4.02108 40.2908 2.99877C40.2908 2.93062 40.3359 2.88518 40.381 2.88518C40.4035 2.88518 40.4261 2.88518 40.4261 2.88518C41.4407 3.33954 42.3877 3.90749 43.2444 4.61175C44.3718 5.52048 45.454 6.45192 46.5362 7.40607C47.7312 8.47382 48.7909 9.67788 49.6928 10.9955C50.4143 12.0178 51.1809 13.0174 51.9925 13.9716C53.3904 15.5846 54.8785 17.1294 56.4117 18.6288C57.8998 20.06 59.5006 21.355 61.1916 22.5136H57.9223V22.4681ZM18.5107 29.9197H0.0224609V48.5258H3.72011V41.0742H18.5107V29.9197Z" fill="white"/>
</g>
<defs>
<clipPath id="clip0_10_119">
<rect width="122" height="56" fill="white"/>
</clipPath>
</defs>
</svg>
